<svg width="116" height="21" viewBox="0 0 116 21" fill="none" xmlns="http://www.w3.org/2000/svg">
<g clip-path="url(#clip0_1_9468)">
<path d="M9.53834 1.73936C9.70914 1.32871 10.2909 1.32871 10.4617 1.73936L12.5278 6.70684C12.5998 6.87996 12.7626 6.99824 12.9495 7.01322L18.3123 7.44316C18.7556 7.4787 18.9354 8.03195 18.5976 8.32129L14.5117 11.8213C14.3693 11.9433 14.3071 12.1347 14.3506 12.317L15.5989 17.5502C15.7021 17.9828 15.2315 18.3248 14.8519 18.0929L10.2606 15.2886C10.1006 15.1909 9.89938 15.1909 9.73937 15.2886L5.14806 18.0929C4.76851 18.3248 4.29788 17.9828 4.40108 17.5502L5.64939 12.317C5.69289 12.1347 5.6307 11.9433 5.48831 11.8213L1.40241 8.32129C1.06464 8.03195 1.24441 7.4787 1.68773 7.44316L7.05054 7.01322C7.23744 6.99824 7.40024 6.87996 7.47225 6.70684L9.53834 1.73936Z" fill="#F2F4F7"/>
<g clip-path="url(#clip1_1_9468)">
<path d="M9.53834 1.73936C9.70914 1.32871 10.2909 1.32871 10.4617 1.73936L12.5278 6.70684C12.5998 6.87996 12.7626 6.99824 12.9495 7.01322L18.3123 7.44316C18.7556 7.4787 18.9354 8.03195 18.5976 8.32129L14.5117 11.8213C14.3693 11.9433 14.3071 12.1347 14.3506 12.317L15.5989 17.5502C15.7021 17.9828 15.2315 18.3248 14.8519 18.0929L10.2606 15.2886C10.1006 15.1909 9.89938 15.1909 9.73937 15.2886L5.14806 18.0929C4.76851 18.3248 4.29788 17.9828 4.40108 17.5502L5.64939 12.317C5.69289 12.1347 5.6307 11.9433 5.48831 11.8213L1.40241 8.32129C1.06464 8.03195 1.24441 7.4787 1.68773 7.44316L7.05054 7.01322C7.23744 6.99824 7.40024 6.87996 7.47225 6.70684L9.53834 1.73936Z" fill="#FEC84B"/>
</g>
</g>
<g clip-path="url(#clip2_1_9468)">
<path d="M33.5383 1.73936C33.7091 1.32871 34.2909 1.32871 34.4617 1.73936L36.5278 6.70684C36.5998 6.87996 36.7626 6.99824 36.9495 7.01322L42.3123 7.44316C42.7556 7.4787 42.9354 8.03195 42.5976 8.32129L38.5117 11.8213C38.3693 11.9433 38.3071 12.1347 38.3506 12.317L39.5989 17.5502C39.7021 17.9828 39.2315 18.3248 38.8519 18.0929L34.2606 15.2886C34.1006 15.1909 33.8994 15.1909 33.7394 15.2886L29.1481 18.0929C28.7685 18.3248 28.2979 17.9828 28.4011 17.5502L29.6494 12.317C29.6929 12.1347 29.6307 11.9433 29.4883 11.8213L25.4024 8.32129C25.0646 8.03195 25.2444 7.4787 25.6877 7.44316L31.0505 7.01322C31.2374 6.99824 31.4002 6.87996 31.4722 6.70684L33.5383 1.73936Z" fill="#F2F4F7"/>
<g clip-path="url(#clip3_1_9468)">
<path d="M33.5383 1.73936C33.7091 1.32871 34.2909 1.32871 34.4617 1.73936L36.5278 6.70684C36.5998 6.87996 36.7626 6.99824 36.9495 7.01322L42.3123 7.44316C42.7556 7.4787 42.9354 8.03195 42.5976 8.32129L38.5117 11.8213C38.3693 11.9433 38.3071 12.1347 38.3506 12.317L39.5989 17.5502C39.7021 17.9828 39.2315 18.3248 38.8519 18.0929L34.2606 15.2886C34.1006 15.1909 33.8994 15.1909 33.7394 15.2886L29.1481 18.0929C28.7685 18.3248 28.2979 17.9828 28.4011 17.5502L29.6494 12.317C29.6929 12.1347 29.6307 11.9433 29.4883 11.8213L25.4024 8.32129C25.0646 8.03195 25.2444 7.4787 25.6877 7.44316L31.0505 7.01322C31.2374 6.99824 31.4002 6.87996 31.4722 6.70684L33.5383 1.73936Z" fill="#FEC84B"/>
</g>
</g>
<g clip-path="url(#clip4_1_9468)">
<path d="M57.5383 1.73936C57.7091 1.32871 58.2909 1.32871 58.4617 1.73936L60.5278 6.70684C60.5998 6.87996 60.7626 6.99824 60.9495 7.01322L66.3123 7.44316C66.7556 7.4787 66.9354 8.03195 66.5976 8.32129L62.5117 11.8213C62.3693 11.9433 62.3071 12.1347 62.3506 12.317L63.5989 17.5502C63.7021 17.9828 63.2315 18.3248 62.8519 18.0929L58.2606 15.2886C58.1006 15.1909 57.8994 15.1909 57.7394 15.2886L53.1481 18.0929C52.7685 18.3248 52.2979 17.9828 52.4011 17.5502L53.6494 12.317C53.6929 12.1347 53.6307 11.9433 53.4883 11.8213L49.4024 8.32129C49.0646 8.03195 49.2444 7.4787 49.6877 7.44316L55.0505 7.01322C55.2374 6.99824 55.4002 6.87996 55.4722 6.70684L57.5383 1.73936Z" fill="#F2F4F7"/>
<g clip-path="url(#clip5_1_9468)">
<path d="M57.5383 1.73936C57.7091 1.32871 58.2909 1.32871 58.4617 1.73936L60.5278 6.70684C60.5998 6.87996 60.7626 6.99824 60.9495 7.01322L66.3123 7.44316C66.7556 7.4787 66.9354 8.03195 66.5976 8.32129L62.5117 11.8213C62.3693 11.9433 62.3071 12.1347 62.3506 12.317L63.5989 17.5502C63.7021 17.9828 63.2315 18.3248 62.8519 18.0929L58.2606 15.2886C58.1006 15.1909 57.8994 15.1909 57.7394 15.2886L53.1481 18.0929C52.7685 18.3248 52.2979 17.9828 52.4011 17.5502L53.6494 12.317C53.6929 12.1347 53.6307 11.9433 53.4883 11.8213L49.4024 8.32129C49.0646 8.03195 49.2444 7.4787 49.6877 7.44316L55.0505 7.01322C55.2374 6.99824 55.4002 6.87996 55.4722 6.70684L57.5383 1.73936Z" fill="#FEC84B"/>
</g>
</g>
<g clip-path="url(#clip6_1_9468)">
<path d="M81.5383 1.73936C81.7091 1.32871 82.2909 1.32871 82.4617 1.73936L84.5278 6.70684C84.5998 6.87996 84.7626 6.99824 84.9495 7.01322L90.3123 7.44316C90.7556 7.4787 90.9354 8.03195 90.5976 8.32129L86.5117 11.8213C86.3693 11.9433 86.3071 12.1347 86.3506 12.317L87.5989 17.5502C87.7021 17.9828 87.2315 18.3248 86.8519 18.0929L82.2606 15.2886C82.1006 15.1909 81.8994 15.1909 81.7394 15.2886L77.1481 18.0929C76.7685 18.3248 76.2979 17.9828 76.4011 17.5502L77.6494 12.317C77.6929 12.1347 77.6307 11.9433 77.4883 11.8213L73.4024 8.32129C73.0646 8.03195 73.2444 7.4787 73.6877 7.44316L79.0505 7.01322C79.2374 6.99824 79.4002 6.87996 79.4722 6.70684L81.5383 1.73936Z" fill="#F2F4F7"/>
<g clip-path="url(#clip7_1_9468)">
<path d="M81.5383 1.73936C81.7091 1.32871 82.2909 1.32871 82.4617 1.73936L84.5278 6.70684C84.5998 6.87996 84.7626 6.99824 84.9495 7.01322L90.3123 7.44316C90.7556 7.4787 90.9354 8.03195 90.5976 8.32129L86.5117 11.8213C86.3693 11.9433 86.3071 12.1347 86.3506 12.317L87.5989 17.5502C87.7021 17.9828 87.2315 18.3248 86.8519 18.0929L82.2606 15.2886C82.1006 15.1909 81.8994 15.1909 81.7394 15.2886L77.1481 18.0929C76.7685 18.3248 76.2979 17.9828 76.4011 17.5502L77.6494 12.317C77.6929 12.1347 77.6307 11.9433 77.4883 11.8213L73.4024 8.32129C73.0646 8.03195 73.2444 7.4787 73.6877 7.44316L79.0505 7.01322C79.2374 6.99824 79.4002 6.87996 79.4722 6.70684L81.5383 1.73936Z" fill="#FEC84B"/>
</g>
</g>
<g clip-path="url(#clip8_1_9468)">
<path d="M105.538 1.73936C105.709 1.32871 106.291 1.32871 106.462 1.73936L108.528 6.70684C108.6 6.87996 108.763 6.99824 108.949 7.01322L114.312 7.44316C114.756 7.4787 114.935 8.03195 114.598 8.32129L110.512 11.8213C110.369 11.9433 110.307 12.1347 110.351 12.317L111.599 17.5502C111.702 17.9828 111.231 18.3248 110.852 18.0929L106.261 15.2886C106.101 15.1909 105.899 15.1909 105.739 15.2886L101.148 18.0929C100.769 18.3248 100.298 17.9828 100.401 17.5502L101.649 12.317C101.693 12.1347 101.631 11.9433 101.488 11.8213L97.4024 8.32129C97.0646 8.03195 97.2444 7.4787 97.6877 7.44316L103.051 7.01322C103.237 6.99824 103.4 6.87996 103.472 6.70684L105.538 1.73936Z" fill="#F2F4F7"/>
</g>
<defs>
<clipPath id="clip0_1_9468">
<rect width="20" height="20" fill="white" transform="translate(0 0.129395)"/>
</clipPath>
<clipPath id="clip1_1_9468">
<rect width="20" height="20" fill="white" transform="translate(0 0.129395)"/>
</clipPath>
<clipPath id="clip2_1_9468">
<rect width="20" height="20" fill="white" transform="translate(24 0.129395)"/>
</clipPath>
<clipPath id="clip3_1_9468">
<rect width="20" height="20" fill="white" transform="translate(24 0.129395)"/>
</clipPath>
<clipPath id="clip4_1_9468">
<rect width="20" height="20" fill="white" transform="translate(48 0.129395)"/>
</clipPath>
<clipPath id="clip5_1_9468">
<rect width="20" height="20" fill="white" transform="translate(48 0.129395)"/>
</clipPath>
<clipPath id="clip6_1_9468">
<rect width="20" height="20" fill="white" transform="translate(72 0.129395)"/>
</clipPath>
<clipPath id="clip7_1_9468">
<rect width="20" height="20" fill="white" transform="translate(72 0.129395)"/>
</clipPath>
<clipPath id="clip8_1_9468">
<rect width="20" height="20" fill="white" transform="translate(96 0.129395)"/>
</clipPath>
</defs>
</svg>
